<svg width="55" height="55" viewBox="0 0 55 55" fill="none" xmlns="http://www.w3.org/2000/svg">
    <path d="M52.1383 39.0843C51.9521 38.6111 51.6736 38.1799 51.3188 37.8157C50.964 37.4515 50.5402 37.1616 50.0721 36.9632C49.604 36.7647 49.101 36.6616 48.5925 36.6599C48.0841 36.6582 47.5804 36.7578 47.1109 36.953L36.1711 40.8288C36.2086 40.6102 36.2287 40.3889 36.2313 40.1671C36.2313 39.1916 35.8438 38.2561 35.1539 37.5663C34.4642 36.8765 33.5286 36.489 32.5531 36.489H29.7172C27.1952 36.4867 24.7116 35.8703 22.4813 34.6929C20.0053 33.3835 17.2469 32.6991 14.4461 32.6991H9.28986C9.06195 32.6991 8.84332 32.7897 8.68219 32.9508C8.52102 33.1121 8.43048 33.3306 8.43048 33.5585V47.8757C8.43048 48.1036 8.52102 48.3222 8.68219 48.4834C8.84332 48.6446 9.06195 48.7351 9.28986 48.7351C11.1251 48.7343 12.947 49.0453 14.6781 49.6546L19.0953 51.2187C21.3594 52.015 23.7421 52.4219 26.1422 52.4218H27.0016C29.5744 52.3053 32.1047 51.723 34.4695 50.703L50.3078 43.9398C51.1647 43.5059 51.828 42.7666 52.1668 41.8678C52.5057 40.9691 52.4954 39.976 52.1383 39.0843Z" fill="#D1D3D4"/>
    <path d="M33.1805 20.2985C32.9526 20.2985 32.7339 20.2079 32.5728 20.0468C32.4116 19.8856 32.3211 19.667 32.3211 19.4391V12.7789C32.3211 12.551 32.4116 12.3324 32.5728 12.1713C32.7339 12.0101 32.9526 11.9196 33.1805 11.9196C33.4084 11.9196 33.627 12.0101 33.7881 12.1713C33.9493 12.3324 34.0399 12.551 34.0399 12.7789V19.4391C34.0399 19.667 33.9493 19.8856 33.7881 20.0468C33.627 20.2079 33.4084 20.2985 33.1805 20.2985Z" fill="#466089"/>
    <path d="M9.28984 28.7891H3.4375C2.96288 28.7891 2.57812 29.1738 2.57812 29.6484V50.7031C2.57812 51.1778 2.96288 51.5625 3.4375 51.5625H9.28984C9.76448 51.5625 10.1492 51.1778 10.1492 50.7031V29.6484C10.1492 29.1738 9.76448 28.7891 9.28984 28.7891Z" fill="#B1B3B6"/>
    <path d="M33.1805 35.8789C37.9599 35.8789 41.8344 32.0044 41.8344 27.225C41.8344 22.4456 37.9599 18.5711 33.1805 18.5711C28.401 18.5711 24.5266 22.4456 24.5266 27.225C24.5266 32.0044 28.401 35.8789 33.1805 35.8789Z" fill="#FFC20E"/>
    <path d="M33.825 26.3656H32.5273C32.4203 26.3738 32.3127 26.3603 32.2109 26.3259C32.1092 26.2916 32.0154 26.2371 31.9352 26.1657C31.855 26.0943 31.79 26.0075 31.7441 25.9104C31.6981 25.8134 31.6723 25.708 31.668 25.6008C31.6689 25.4996 31.69 25.3998 31.7297 25.3068C31.7696 25.2139 31.8275 25.1298 31.9 25.0594C32.0607 24.9089 32.2729 24.8259 32.493 24.8273H34.9594C35.1873 24.8273 35.4059 24.7368 35.567 24.5756C35.7282 24.4144 35.8187 24.1959 35.8187 23.968C35.8187 23.7401 35.7282 23.5214 35.567 23.3603C35.4059 23.1991 35.1873 23.1086 34.9594 23.1086H34.0398V22.1031C34.0398 21.8752 33.9493 21.6566 33.7881 21.4955C33.627 21.3342 33.4084 21.2437 33.1805 21.2437C32.9526 21.2437 32.7339 21.3342 32.5728 21.4955C32.4117 21.6566 32.3211 21.8752 32.3211 22.1031V23.1258C31.7297 23.169 31.1712 23.4149 30.7398 23.8219C30.5017 24.053 30.3121 24.3295 30.1823 24.635C30.0523 24.9404 29.9849 25.2688 29.9836 25.6008C29.9881 25.9336 30.0584 26.2623 30.1908 26.5678C30.3231 26.8733 30.5147 27.1495 30.7544 27.3805C30.9942 27.6115 31.2774 27.7926 31.5876 27.9134C31.8978 28.0343 32.2289 28.0924 32.5617 28.0844H33.8594C33.9671 28.0762 34.0754 28.09 34.1778 28.1248C34.28 28.1597 34.3742 28.2149 34.4546 28.2872C34.5348 28.3595 34.5997 28.4474 34.6451 28.5454C34.6906 28.6435 34.7156 28.7498 34.7187 28.8578C34.7171 28.9575 34.6958 29.0559 34.6559 29.1473C34.6161 29.2388 34.5586 29.3214 34.4867 29.3906C34.3261 29.541 34.1138 29.624 33.8937 29.6227H31.3586C31.1307 29.6227 30.9121 29.7131 30.7509 29.8744C30.5898 30.0355 30.4992 30.2541 30.4992 30.482C30.4992 30.7099 30.5898 30.9285 30.7509 31.0897C30.9121 31.2508 31.1307 31.3414 31.3586 31.3414H32.3211V32.3469C32.3211 32.5748 32.4117 32.7933 32.5728 32.9545C32.7339 33.1157 32.9526 33.2062 33.1805 33.2062C33.4084 33.2062 33.627 33.1157 33.7881 32.9545C33.9493 32.7933 34.0398 32.5748 34.0398 32.3469V31.3242C34.6295 31.2839 35.1862 31.0375 35.6125 30.6281C35.8504 30.3985 36.0399 30.1236 36.1698 29.8194C36.2997 29.5154 36.3674 29.1884 36.3687 28.8578C36.3654 28.5271 36.2969 28.2004 36.1672 27.8962C36.0376 27.5919 35.8492 27.3163 35.6131 27.0848C35.3768 26.8534 35.0974 26.6708 34.7906 26.5474C34.4838 26.424 34.1557 26.3622 33.825 26.3656Z" fill="#466089"/>
    <path d="M48.0477 17.1875C47.9662 13.3067 46.3703 9.61175 43.6009 6.892C40.8315 4.17225 37.1082 2.64343 33.2267 2.6322C29.3452 2.62098 25.6131 4.12825 22.828 6.83194C20.0429 9.53561 18.4257 13.2214 18.3219 17.1016C18.3178 17.1185 18.3178 17.1362 18.3219 17.1531C18.3219 17.2562 18.3219 17.368 18.3219 17.4711C18.3219 17.699 18.4124 17.9176 18.5736 18.0787C18.7347 18.2399 18.9533 18.3305 19.1813 18.3305C19.4092 18.3305 19.6277 18.2399 19.7889 18.0787C19.95 17.9176 20.0406 17.699 20.0406 17.4711C20.0369 17.3995 20.0369 17.3278 20.0406 17.2562V17.1875C20.1309 16.2171 20.589 15.3179 21.321 14.6746C22.0531 14.0313 23.0036 13.6924 23.9776 13.7276C24.9515 13.7627 25.8751 14.1693 26.5589 14.8637C27.2426 15.5583 27.6347 16.488 27.6547 17.4625C27.6547 17.6904 27.7452 17.909 27.9064 18.0702C28.0675 18.2313 28.2862 18.3219 28.5141 18.3219C28.742 18.3219 28.9605 18.2313 29.1217 18.0702C29.2829 17.909 29.3734 17.6904 29.3734 17.4625C29.3489 16.9468 29.4294 16.4314 29.6099 15.9477C29.7903 15.4639 30.0671 15.0219 30.4234 14.6482C30.7797 14.2746 31.2082 13.977 31.6828 13.7739C32.1575 13.5706 32.6685 13.4658 33.1848 13.4658C33.7011 13.4658 34.212 13.5706 34.6866 13.7739C35.1612 13.977 35.5897 14.2746 35.946 14.6482C36.3024 15.0219 36.5792 15.4639 36.7597 15.9477C36.9401 16.4314 37.0206 16.9468 36.9961 17.4625C36.9961 17.6904 37.0866 17.909 37.2478 18.0702C37.4089 18.2313 37.6276 18.3219 37.8555 18.3219C38.0834 18.3219 38.3019 18.2313 38.4631 18.0702C38.6243 17.909 38.7148 17.6904 38.7148 17.4625C38.7348 16.488 39.1269 15.5583 39.8106 14.8637C40.4944 14.1693 41.418 13.7627 42.3919 13.7276C43.3659 13.6924 44.3164 14.0313 45.0484 14.6746C45.7805 15.3179 46.2387 16.2171 46.3289 17.1875V17.4625C46.3289 17.6904 46.4194 17.909 46.5806 18.0702C46.7418 18.2313 46.9604 18.3219 47.1883 18.3219C47.4162 18.3219 47.6347 18.2313 47.7959 18.0702C47.9571 17.909 48.0477 17.6904 48.0477 17.4625V17.1875Z" fill="#33B2FF"/>
</svg>
